<svg width="48" height="48" viewBox="0 0 48 48" xmlns="http://www.w3.org/2000/svg">
<path d="M31.4849 28.6835C33.4214 26.041 34.2887 22.7647 33.9134 19.5102C33.538 16.2556 31.9477 13.2628 29.4605 11.1304C26.9733 8.9981 23.7726 7.88351 20.4989 8.00965C17.2252 8.13579 14.1199 9.49336 11.8041 11.8108C9.48838 14.1282 8.13303 17.2345 8.00923 20.5083C7.88543 23.7821 9.00232 26.9819 11.1364 29.4676C13.2705 31.9533 16.2645 33.5415 19.5193 33.9145C22.7742 34.2875 26.0498 33.4178 28.691 31.4794H28.689C28.749 31.5594 28.813 31.6354 28.885 31.7094L36.5847 39.4091C36.9597 39.7844 37.4684 39.9953 37.9989 39.9955C38.5294 39.9957 39.0383 39.7851 39.4136 39.4101C39.7888 39.0351 39.9998 38.5264 39.9999 37.9959C40.0001 37.4654 39.7896 36.9565 39.4146 36.5812L31.7148 28.8815C31.6433 28.8091 31.5665 28.7423 31.4849 28.6815V28.6835ZM32.0008 20.9958C32.0008 22.4403 31.7163 23.8706 31.1635 25.2052C30.6108 26.5397 29.8005 27.7523 28.7791 28.7737C27.7577 29.7951 26.5451 30.6053 25.2106 31.1581C23.8761 31.7109 22.4457 31.9954 21.0012 31.9954C19.5568 31.9954 18.1264 31.7109 16.7919 31.1581C15.4574 30.6053 14.2448 29.7951 13.2234 28.7737C12.202 27.7523 11.3917 26.5397 10.839 25.2052C10.2862 23.8706 10.0017 22.4403 10.0017 20.9958C10.0017 18.0785 11.1605 15.2807 13.2234 13.2179C15.2862 11.1551 18.084 9.99622 21.0012 9.99622C23.9185 9.99622 26.7163 11.1551 28.7791 13.2179C30.842 15.2807 32.0008 18.0785 32.0008 20.9958Z" />
</svg>
